<svg xmlns="http://www.w3.org/2000/svg" xmlns:xlink="http://www.w3.org/1999/xlink" viewBox="0 0 511.99 511.99"><defs><style>.cls-1{fill:url(#Dégradé_sans_nom_14);}.cls-2{fill:url(#Dégradé_sans_nom_5);}.cls-3{fill:url(#Dégradé_sans_nom_5-2);}.cls-4{fill:url(#Dégradé_sans_nom_5-3);}.cls-5{fill:url(#Dégradé_sans_nom_5-4);}</style><linearGradient id="Dégradé_sans_nom_14" x1="67.55" y1="337.82" x2="414.02" y2="684.3" gradientTransform="translate(4.4 -278.01) scale(1.04)" gradientUnits="userSpaceOnUse"><stop offset="0" stop-color="#23221d"/><stop offset="1" stop-color="#060607"/></linearGradient><linearGradient id="Dégradé_sans_nom_5" x1="98.24" y1="416.59" x2="286.74" y2="605.09" gradientTransform="translate(-278.03 507.58) rotate(-90) scale(1.04)" gradientUnits="userSpaceOnUse"><stop offset="0" stop-color="#fff"/><stop offset="1" stop-color="#c8c6cc"/></linearGradient><linearGradient id="Dégradé_sans_nom_5-2" x1="174.41" y1="340.42" x2="362.91" y2="528.92" xlink:href="#Dégradé_sans_nom_5"/><linearGradient id="Dégradé_sans_nom_5-3" x1="235.77" y1="279.06" x2="424.28" y2="467.55" xlink:href="#Dégradé_sans_nom_5"/><linearGradient id="Dégradé_sans_nom_5-4" x1="166.49" y1="348.35" x2="354.99" y2="536.85" xlink:href="#Dégradé_sans_nom_5"/></defs><g id="Calque_2" data-name="Calque 2"><g id="Capa_1" data-name="Capa 1"><circle class="cls-1" cx="256" cy="256" r="256"/><path class="cls-2" d="M123.06,339.85a185,185,0,0,1-50.4-7,191.79,191.79,0,0,0,174.88,113c105.91,0,191.76-85.86,191.76-191.77,0-92.93-66.12-170.42-153.88-188a184.17,184.17,0,0,1,22.64,88.74C308.06,257,225.23,339.85,123.06,339.85Z"/><polygon class="cls-3" points="157.79 245.22 147.03 215.1 136.27 245.22 106.15 255.98 136.27 266.74 147.03 296.86 157.79 266.74 187.91 255.98 157.79 245.22"/><polygon class="cls-4" points="139.66 135.11 128.9 104.99 118.14 135.11 88.02 145.87 118.14 156.63 128.9 186.75 139.66 156.63 169.78 145.87 139.66 135.11"/><polygon class="cls-5" points="252.99 166.59 242.23 136.47 231.47 166.59 201.35 177.35 231.47 188.1 242.23 218.23 252.99 188.1 283.11 177.35 252.99 166.59"/></g></g></svg>