<svg xmlns="http://www.w3.org/2000/svg" xmlns:xlink="http://www.w3.org/1999/xlink" viewBox="0 0 511.99 511.99"><defs><style>.cls-1{fill:url(#Dégradé_sans_nom_14);}.cls-2{fill:url(#Dégradé_sans_nom_127);}.cls-3{fill:url(#Dégradé_sans_nom_2);}.cls-4{fill:url(#Dégradé_sans_nom_3);}.cls-5{fill:#ffe767;}.cls-6{fill:#ffd500;}</style><linearGradient id="Dégradé_sans_nom_14" x1="67.55" y1="337.82" x2="414.02" y2="684.3" gradientTransform="translate(4.4 -278.01) scale(1.04)" gradientUnits="userSpaceOnUse"><stop offset="0" stop-color="#23221d"/><stop offset="1" stop-color="#060607"/></linearGradient><linearGradient id="Dégradé_sans_nom_127" x1="90.02" y1="368.03" x2="421.97" y2="699.98" gradientTransform="translate(0 -278)" gradientUnits="userSpaceOnUse"><stop offset="0" stop-color="#fffff5"/><stop offset="1" stop-color="#fff"/></linearGradient><linearGradient id="Dégradé_sans_nom_2" x1="135.03" y1="534.01" x2="376.97" y2="534.01" gradientTransform="translate(0 -278)" gradientUnits="userSpaceOnUse"><stop offset="0" stop-color="#fff5cb"/><stop offset="1" stop-color="#ffd400"/></linearGradient><linearGradient id="Dégradé_sans_nom_3" x1="169.71" y1="534.01" x2="342.29" y2="534.01" gradientTransform="translate(0 -278)" gradientUnits="userSpaceOnUse"><stop offset="0" stop-color="#ffb74f"/><stop offset="1" stop-color="#fb5700"/></linearGradient></defs><g id="Calque_2" data-name="Calque 2"><g id="Capa_1" data-name="Capa 1"><circle class="cls-1" cx="256" cy="256" r="256"/><circle class="cls-2" cx="256" cy="256.01" r="234.72"/><circle class="cls-3" cx="256" cy="256.01" r="120.97"/><circle class="cls-4" cx="256" cy="256.01" r="86.29"/><rect class="cls-5" x="246.45" y="57" width="19.1" height="52.35"/><rect class="cls-5" x="246.45" y="402.66" width="19.1" height="52.35"/><rect class="cls-6" x="402.65" y="246.46" width="52.35" height="19.1"/><rect class="cls-5" x="56.99" y="246.46" width="52.35" height="19.1"/><rect class="cls-6" x="352.03" y="124.25" width="52.35" height="19.1" transform="translate(16.16 306.62) rotate(-45)"/><rect class="cls-5" x="107.61" y="368.66" width="52.35" height="19.1" transform="translate(-228.25 205.38) rotate(-45)"/><rect class="cls-5" x="368.65" y="352.05" width="19.1" height="52.35" transform="translate(-156.67 378.21) rotate(-45)"/><rect class="cls-5" x="124.24" y="107.62" width="19.1" height="52.35" transform="translate(-55.42 133.79) rotate(-45)"/></g></g></svg>